<svg width="170.727" height="62.414" viewBox="0 0 170.727 62.4142" fill="none" xmlns="http://www.w3.org/2000/svg" role="img" aria-label="Alma Career">
<g id="Group">
<path id="Vector" d="M40.8024 0H11.4533C5.12894 0 0 5.12754 0 11.4502V41.149C0 47.4717 5.12894 52.5992 11.4533 52.5992H21.8543C22.9603 52.5992 24.6067 52.8855 26.0025 53.1824C26.6969 53.3292 27.3162 53.4759 27.7671 53.5869C27.9926 53.6404 28.1715 53.6871 28.2968 53.7192C28.3577 53.7335 28.4078 53.7479 28.4399 53.7549C28.4543 53.7586 28.465 53.7622 28.4722 53.7622C28.4829 53.7622 28.4973 53.7693 28.5152 53.7765C28.5546 53.7908 28.6118 53.8123 28.6869 53.8373C28.8373 53.891 29.0592 53.9732 29.3419 54.0734C29.9075 54.2774 30.7164 54.5708 31.697 54.9287C33.6584 55.6407 36.3034 56.5996 39.0414 57.5908C44.5139 59.5767 50.3409 61.695 51.7689 62.2317L52.2521 62.4141V11.4502C52.2521 5.12754 47.1232 0 40.7987 0H40.8024Z" fill="var(--fill-0, #1D1D1D)"/>
<path id="Vector_2" d="M85.2811 24.4968C85.4958 25.0586 85.6749 25.4092 85.8072 25.6669C85.9396 25.9244 86.1866 26.2107 86.5339 26.5328C86.881 26.8548 87.3749 27.1912 88.0013 27.5418V27.7637H76.999V27.5418C77.8723 27.1268 78.4843 26.7546 78.8135 26.4325C79.1428 26.1106 79.3074 25.7456 79.3074 25.3234C79.3074 24.9011 79.1249 24.2141 78.7598 23.2051L77.5573 19.8988H69.9193L69.6402 20.6539C68.9494 22.629 68.6022 23.9422 68.6022 24.6041C68.6022 25.266 68.8027 25.7598 69.1964 26.1928C69.5901 26.6258 70.2701 27.0767 71.2437 27.5418V27.7637H64.0675V27.5418C65.2379 26.6258 66.0968 25.7277 66.6408 24.8617C67.1848 23.9958 67.7934 22.6647 68.4699 20.8685L73.1871 8.11229L71.9846 5.81511C74.0783 5.04579 75.7606 4.22639 77.049 3.34615L85.2632 24.4467L85.2811 24.4968ZM76.999 18.3208L73.749 9.41475L70.517 18.3208H77.0024H76.999Z" fill="var(--fill-0, #1D1D1D)"/>
<path id="Vector_3" d="M88.5337 27.5492C89.3891 27.1163 89.9367 26.7011 90.1658 26.2968C90.3948 25.8961 90.513 25.1089 90.513 23.9209V9.07863C90.513 8.03738 90.4271 7.23228 90.2838 6.68841C90.1372 6.14452 89.9546 5.77239 89.7542 5.57916C89.5538 5.38594 89.1421 5.09612 88.5337 4.69535V4.47351C91.057 4.2946 93.4514 3.87953 95.7099 3.22115V23.9209C95.7099 25.1089 95.8244 25.8961 96.057 26.2968C96.2897 26.6976 96.8338 27.1163 97.6712 27.5492V27.771H88.5158L88.5337 27.5492Z" fill="var(--fill-0, #1D1D1D)"/>
<path id="Vector_4" d="M126.112 23.8904C126.112 25.0785 126.226 25.8657 126.459 26.2664C126.691 26.6671 127.235 27.0857 128.091 27.5187V27.7406H118.935V27.5187C119.841 27.0536 120.403 26.6206 120.618 26.2199C120.832 25.8191 120.965 25.0498 121.011 23.9119C121.029 23.0281 121.043 20.7667 121.043 17.1098C121.043 16.1008 120.797 15.3458 120.32 14.8306C119.841 14.3152 119.265 14.0612 118.588 14.0612C117.514 14.0612 116.559 14.7339 115.718 16.0685V23.9155C115.718 25.1035 115.832 25.8907 116.065 26.2914C116.297 26.6921 116.841 27.1073 117.697 27.5437V27.7656H108.541V27.5437C109.397 27.1109 109.962 26.6957 110.206 26.2914C110.453 25.8907 110.585 25.1035 110.6 23.9155C110.617 23.3036 110.632 21.7007 110.632 19.085C110.632 17.0955 110.467 15.7608 110.134 15.0917C109.805 14.419 109.211 14.0827 108.355 14.0827C107.135 14.0827 106.115 14.7554 105.288 16.1186V23.9298C105.288 25.1177 105.403 25.9049 105.635 26.3058C105.864 26.7064 106.394 27.1216 107.221 27.5581V27.78H98.101V27.5581C98.9565 27.1251 99.5041 26.7101 99.7331 26.3058C99.9622 25.9049 100.08 25.1177 100.08 23.9298V17.2386C100.08 15.7967 99.9658 14.8306 99.7331 14.3475C99.5005 13.8644 98.9565 13.3707 98.101 12.8733V12.6514C100.392 12.5226 102.754 12.1075 105.163 11.399V14.9772C106.644 12.6371 108.527 11.4635 110.803 11.4635C111.809 11.4635 112.783 11.7354 113.724 12.2829C114.665 12.8303 115.274 13.7249 115.539 14.9629C117.038 12.6228 118.935 11.4491 121.212 11.4491C121.724 11.4491 122.25 11.5279 122.779 11.6889C123.309 11.8499 123.835 12.0896 124.347 12.4117C124.859 12.7337 125.288 13.2311 125.618 13.9038C125.947 14.5765 126.112 15.378 126.112 16.2939V23.9012H126.104L126.112 23.8904Z" fill="var(--fill-0, #1D1D1D)"/>
<path id="Vector_5" d="M142.934 28.1851C141.732 28.1851 140.886 27.8309 140.41 27.1261C139.934 26.4211 139.72 25.6018 139.766 24.6857H139.734C139.24 25.6018 138.482 26.3997 137.44 27.0938C136.402 27.7844 135.196 28.1207 133.829 28.1207C132.461 28.1207 131.355 27.7665 130.532 27.0617C129.705 26.3567 129.294 25.4407 129.294 24.3315C129.294 22.7105 130.199 21.3473 131.996 20.2416C133.793 19.136 136.398 18.1555 139.798 17.3075L139.866 14.7098C139.884 14.0836 139.734 13.5218 139.422 13.0387C139.108 12.5557 138.614 12.3159 137.938 12.3159C136.932 12.3159 136.123 12.8455 135.529 13.9047C134.935 14.9639 134.537 16.2126 134.326 17.6617L134.162 17.6939L130.582 15.5899C131.191 14.4808 132.168 13.5218 133.517 12.7167C134.87 11.9116 136.552 11.5144 138.55 11.5144C139.82 11.5144 140.894 11.6933 141.767 12.0297C142.641 12.366 143.285 12.8348 143.697 13.4252C144.108 14.0192 144.387 14.6131 144.541 15.2214C144.687 15.8333 144.755 16.4738 144.741 17.1643L144.577 24.9648C144.577 25.6876 144.842 26.0418 145.386 26.0239C145.994 26.0239 146.492 25.5909 146.867 24.7251L147.147 24.8539C146.849 25.752 146.337 26.5249 145.611 27.1511C144.888 27.7772 144.076 28.1959 142.97 28.1959H142.937V28.1888L142.934 28.1851ZM136.695 25.3762C137.769 25.3762 138.757 24.8324 139.666 23.741L139.798 18.0267C136.384 19.0536 134.67 20.6746 134.67 22.8859C134.67 23.6731 134.852 24.2814 135.228 24.7179C135.611 25.1508 136.101 25.362 136.713 25.362L136.695 25.3799V25.3762Z" fill="var(--fill-0, #1D1D1D)"/>
<path id="Vector_6" d="M76.7119 36.3711C75.1765 36.3711 73.8666 37.3158 72.6639 39.1477C71.4613 40.9761 70.8672 43.7206 70.8672 47.3812C70.8672 51.0417 71.4792 53.9114 72.6997 55.8543C73.9203 57.7973 75.3053 58.7562 76.8408 58.7562C78.1292 58.7562 79.4822 58.0978 80.896 56.7668C82.3169 55.4357 83.6341 53.847 84.8545 51.9862H85.0835L84.4071 58.6918C81.7837 59.4145 79.178 59.7831 76.5867 59.7831C74.9725 59.7831 73.4692 59.5577 72.0698 59.0961C70.6667 58.631 69.4141 57.9403 68.2938 57.0101C67.1699 56.0797 66.2823 54.8273 65.638 53.2529C64.9938 51.6821 64.6788 49.8859 64.6788 47.8606C64.6788 43.9139 65.8027 40.8474 68.0611 38.6682C70.3196 36.4856 73.1901 35.3942 76.6726 35.3942C78.8166 35.3942 81.3899 35.7628 84.4071 36.4856L85.0835 43.0802H84.8545C81.8015 38.6038 79.1172 36.3711 76.7907 36.3711H76.7155H76.7119Z" fill="var(--fill-0, #1D1D1D)"/>
<path id="Vector_7" d="M100.703 59.7332C99.5005 59.7332 98.6559 59.379 98.1799 58.6742C97.7038 57.9692 97.4891 57.1499 97.5356 56.2338H97.4998C97.0059 57.1499 96.2471 57.9478 95.2092 58.6419C94.1713 59.3326 92.965 59.6688 91.5978 59.6688C90.2305 59.6688 89.1246 59.3146 88.3014 58.6098C87.4746 57.9048 87.063 56.9888 87.063 55.8796C87.063 54.2586 87.9686 52.8954 89.7689 51.7897C91.5656 50.6841 94.1713 49.7036 97.5713 48.8556L97.6394 46.2579C97.6573 45.6317 97.5069 45.0699 97.1956 44.5868C96.8807 44.1038 96.3866 43.864 95.7102 43.864C94.7046 43.864 93.8956 44.3936 93.3014 45.4528C92.7073 46.512 92.31 47.7607 92.0989 49.2098L91.9342 49.2421L88.3551 47.1381C88.9671 46.0289 89.9406 45.0699 91.2936 44.2649C92.6465 43.4597 94.3286 43.0625 96.3258 43.0625C97.5965 43.0625 98.6702 43.2414 99.5435 43.5778C100.417 43.9141 101.061 44.3828 101.473 44.9733C101.884 45.5673 102.163 46.1612 102.317 46.7695C102.464 47.3814 102.532 48.0219 102.514 48.7124L102.35 56.5129C102.35 57.2357 102.614 57.5899 103.159 57.5721C103.767 57.5721 104.264 57.1392 104.64 56.2732L104.919 56.402C104.622 57.3001 104.11 58.073 103.384 58.6992C102.661 59.3253 101.848 59.744 100.743 59.744H100.71V59.7369L100.703 59.7332ZM94.4647 56.9245C95.5385 56.9245 96.5263 56.3805 97.4354 55.2891L97.5679 49.5748C94.1533 50.6018 92.439 52.2227 92.439 54.4375C92.439 55.2247 92.6215 55.833 92.9973 56.266C93.3802 56.699 93.8133 56.9245 94.4253 56.9245H94.4683H94.4647Z" fill="var(--fill-0, #1D1D1D)"/>
<path id="Vector_8" d="M105.241 59.1267C106.097 58.6937 106.644 58.2786 106.874 57.8742C107.103 57.4736 107.221 56.6864 107.221 55.4983V48.5353C107.221 47.2685 107.106 46.3847 106.856 45.8873C106.609 45.3899 106.065 44.9105 105.224 44.4454V44.2235C107.568 44.0946 109.923 43.6796 112.285 42.9712L112.217 46.2595H112.285C112.582 45.4402 113.126 44.703 113.917 44.0304C114.708 43.3577 115.714 43.0212 116.917 43.0212C117.475 43.0212 118.005 43.1501 118.502 43.3898L117.826 48.6676H117.597C116.176 46.8714 114.991 45.9733 114.014 45.9875C113.323 45.9875 112.776 46.3883 112.4 47.1899V55.4698C112.4 56.6577 112.546 57.4449 112.844 57.8456C113.141 58.2464 113.849 58.6651 114.97 59.098V59.3198H105.206L105.238 59.1267H105.241Z" fill="var(--fill-0, #1D1D1D)"/>
<path id="Vector_9" d="M134.752 53.6228C134.62 54.2489 134.423 54.8608 134.158 55.4369C133.893 56.0129 133.514 56.6571 133.006 57.3476C132.497 58.0346 131.767 58.5821 130.829 59.0008C129.888 59.4194 128.8 59.627 127.562 59.627C125.153 59.627 123.159 58.8719 121.556 57.3799C119.956 55.8877 119.165 53.8803 119.165 51.3649C119.165 48.8495 119.942 46.8886 121.491 45.3464C123.041 43.8042 125.056 43.0385 127.526 43.0385C128.814 43.0385 129.949 43.2604 130.941 43.7112C131.928 44.1621 132.673 44.7203 133.181 45.3966C133.689 46.0728 134.072 46.7276 134.305 47.3717C134.534 48.0157 134.652 48.624 134.652 49.1858V49.5866H123.85V50.0374C123.85 52.1235 124.444 53.6764 125.615 54.6926C126.785 55.7017 128.188 56.2169 129.806 56.2169C132 56.2348 133.564 55.3331 134.505 53.5225L134.752 53.6335V53.6228ZM126.964 43.8794C126.091 43.8794 125.4 44.2944 124.874 45.1603C124.348 46.0263 124.029 47.2285 123.915 48.7708L129.949 48.7064C129.931 48.2233 129.881 47.7439 129.802 47.2643C129.72 46.7812 129.573 46.2696 129.358 45.7222C129.144 45.1783 128.829 44.7274 128.417 44.3911C128.006 44.0547 127.526 43.8758 126.982 43.8758H126.96L126.964 43.8794Z" fill="var(--fill-0, #1D1D1D)"/>
<path id="Vector_10" d="M151.841 53.6228C151.709 54.2489 151.513 54.8608 151.247 55.4369C150.986 56.0129 150.603 56.6571 150.095 57.3476C149.587 58.0346 148.857 58.5821 147.919 59.0008C146.977 59.4194 145.889 59.627 144.651 59.627C142.243 59.627 140.249 58.8719 138.645 57.3799C137.042 55.8877 136.254 53.8803 136.254 51.3649C136.254 48.8495 137.031 46.8886 138.581 45.3464C140.131 43.8042 142.145 43.0385 144.615 43.0385C145.903 43.0385 147.038 43.2604 148.03 43.7112C149.018 44.1621 149.763 44.7203 150.275 45.3966C150.782 46.0728 151.165 46.7276 151.397 47.3717C151.627 48.0157 151.745 48.624 151.745 49.1858V49.5866H140.943V50.0374C140.943 52.1235 141.537 53.6764 142.707 54.6926C143.877 55.7017 145.281 56.2169 146.899 56.2169C149.093 56.2348 150.657 55.3331 151.598 53.5225L151.845 53.6335L151.841 53.6228ZM144.053 43.8794C143.18 43.8794 142.489 44.2944 141.963 45.1603C141.437 46.0263 141.123 47.2285 141.007 48.7708L147.043 48.7064C147.025 48.2233 146.974 47.7402 146.895 47.2643C146.813 46.7812 146.666 46.2696 146.451 45.7222C146.237 45.1783 145.921 44.7274 145.509 44.3911C145.099 44.0547 144.619 43.8758 144.075 43.8758H144.053V43.8794Z" fill="var(--fill-0, #1D1D1D)"/>
<path id="Vector_11" d="M152.734 59.1267C153.589 58.6937 154.137 58.2786 154.366 57.8742C154.595 57.4736 154.713 56.6864 154.713 55.4983V48.5353C154.713 47.2685 154.599 46.3847 154.348 45.8873C154.101 45.3899 153.557 44.9105 152.716 44.4454V44.2235C155.061 44.0946 157.415 43.6796 159.777 42.9712L159.709 46.2595H159.777C160.075 45.4402 160.619 44.703 161.409 44.0304C162.197 43.3577 163.207 43.0212 164.409 43.0212C164.968 43.0212 165.497 43.1501 165.995 43.3898L165.319 48.6676H165.089C163.669 46.8714 162.483 45.9733 161.509 45.9875C160.819 45.9875 160.271 46.3883 159.895 47.1899V55.4698C159.895 56.6577 160.043 57.4449 160.339 57.8456C160.637 58.2464 161.345 58.6651 162.465 59.098V59.3198H152.701L152.734 59.1267Z" fill="var(--fill-0, #1D1D1D)"/>
<path id="Vector_12" d="M168.003 59.5891C167.261 59.5891 166.617 59.335 166.073 58.8019C165.529 58.2687 165.265 57.6641 165.265 56.9698C165.265 56.2757 165.544 55.6209 166.091 55.0949C166.639 54.5688 167.279 54.3077 168.021 54.3077C168.761 54.3077 169.373 54.5617 169.917 55.0949C170.461 55.628 170.727 56.2506 170.727 56.9698C170.727 57.6891 170.465 58.2867 169.917 58.8019C169.37 59.3171 168.751 59.5891 168.024 59.5891H167.998H168.003Z" fill="var(--fill-0, #1D1D1D)"/>
<path id="Vector_13" d="M16.2852 8.22596C20.7342 8.22596 24.3384 11.8292 24.3384 16.2769C24.3384 20.7245 20.7342 24.3278 16.2852 24.3278C11.8364 24.3278 8.23218 20.7245 8.23218 16.2769C8.23218 11.8292 11.8364 8.22596 16.2852 8.22596Z" fill="var(--fill-0, #FFCB3B)"/>
<path id="Vector_14" d="M39.3707 26.8317C33.0893 26.8317 27.9531 31.7375 27.5846 37.9242L27.5594 38.6397V44.007L44.0235 50.0899V26.8317H39.3707Z" fill="var(--fill-0, #4DD7BE)"/>
<path id="Vector_15" d="M27.5594 8.22596H36.8653C40.8202 8.22596 44.0235 11.4284 44.0235 15.3823V24.3278H27.5594V8.22596Z" fill="var(--fill-0, #8F66FF)"/>
<path id="Vector_16" d="M15.3905 44.007H24.3277C24.3277 43.889 24.3384 43.7709 24.3384 43.6493V38.6397C24.3384 32.1167 19.052 26.8317 12.5272 26.8317H8.23218V36.8507C8.23218 40.8046 11.4355 44.007 15.3905 44.007Z" fill="var(--fill-0, #FD7E40)"/>
</g>
</svg>
