<svg viewBox="0 0 111 15.0711" fill="none" xmlns="http://www.w3.org/2000/svg">
<g id="Broadcom">
<path d="M109.962 3.16029L109.727 3.16363L109.723 2.87958L109.958 2.87624C110.048 2.87475 110.117 2.92776 110.118 3.01641C110.119 3.10459 110.052 3.1589 109.962 3.16029ZM110.346 3.01316C110.344 2.81729 110.208 2.67573 109.989 2.67852L109.497 2.68501L109.511 3.73767L109.735 3.73433L109.73 3.3607L109.894 3.35847L110.105 3.72978L110.362 3.72644L110.12 3.32868C110.233 3.30034 110.348 3.19927 110.346 3.01316ZM109.888 4.09965C109.396 4.09965 108.995 3.69863 108.995 3.20572C108.995 2.71281 109.396 2.3118 109.888 2.3118C110.381 2.3118 110.781 2.71281 110.781 3.20572C110.781 3.69863 110.381 4.09965 109.888 4.09965ZM109.888 2.09273C109.275 2.09273 108.777 2.59168 108.777 3.20572C108.777 3.81931 109.275 4.31872 109.888 4.31872C110.501 4.31872 111 3.81931 111 3.20572C111 2.59168 110.501 2.09273 109.888 2.09273Z" fill="#231F20"/>
<path d="M81.6482 9.03483C81.0942 10.0355 80.0293 10.7136 78.8055 10.7136C77.0113 10.7136 75.5566 9.25715 75.5566 7.46095C75.5566 5.66429 77.0113 4.2083 78.8055 4.2083C80.0191 4.2083 81.0757 4.87573 81.6334 5.86294L83.1493 4.34569C82.1795 2.99274 80.5959 2.11042 78.8055 2.11042C75.8538 2.11042 73.4616 4.50581 73.4616 7.46095C73.4616 10.4156 75.8538 12.8115 78.8055 12.8115C80.6056 12.8115 82.1971 11.9194 83.1651 10.5535L81.6482 9.03483ZM44.2926 10.7137C42.498 10.7137 41.0437 9.25724 41.0437 7.46104C41.0437 5.66438 42.498 4.20793 44.2926 4.20793C46.0867 4.20793 47.5415 5.66438 47.5415 7.46104C47.5415 9.25724 46.0867 10.7137 44.2926 10.7137ZM44.2926 2.11051C41.3409 2.11051 38.9483 4.5059 38.9483 7.46104C38.9483 10.4157 41.3409 12.8111 44.2926 12.8111C47.2438 12.8111 49.6369 10.4157 49.6369 7.46104C49.6369 4.5059 47.2438 2.11051 44.2926 2.11051ZM104.63 2.35882L101.972 6.66134L99.3133 2.35882H96.9276V12.509H99.0861V5.8751L101.41 9.41273C101.676 9.81699 102.268 9.81699 102.533 9.41273L104.857 5.8751V12.509H107.016V2.35882H104.63ZM66.5562 10.6072H64.7171V4.26246H66.5562C68.6382 4.26246 69.7323 5.64698 69.7323 7.44271C69.7323 9.16186 68.5621 10.6072 66.5562 10.6072ZM66.5562 2.36091H62.5591V12.5092H66.5562C69.7323 12.5092 71.9357 10.5009 71.9357 7.44271C71.9357 4.38453 69.7323 2.36091 66.5562 2.36091ZM53.8556 8.88798L55.436 4.52141L57.0168 8.88798H53.8556ZM54.0837 2.36086L50.1626 12.5091H52.6243L53.2626 10.79H57.6093L58.2324 12.5091H60.6945L56.7887 2.36086H54.0837ZM33.726 7.00118H31.4613V4.26279H33.726C34.5925 4.26279 35.2457 4.77984 35.2457 5.63199C35.2457 6.48414 34.5925 7.00118 33.726 7.00118ZM37.4491 5.63199C37.4491 3.74528 36.1576 2.36077 34.045 2.36077H29.3033V12.5091H31.4613V8.9032H33.0422L35.0329 12.5091H37.5099L35.2304 8.64422C36.3249 8.38569 37.4491 7.42726 37.4491 5.63199ZM23.8985 10.6378H21.1174V8.2795H23.8985C24.7497 8.2795 25.2054 8.82718 25.2054 9.46583C25.2054 10.1964 24.7191 10.6378 23.8985 10.6378ZM21.1174 4.21693H23.8225C24.5522 4.21693 25.0079 4.68849 25.0079 5.32761C25.0079 5.96672 24.5522 6.42296 23.8225 6.42296H21.1174V4.21693ZM25.4636 7.27511C26.4214 7.07739 27.2118 6.22524 27.2118 4.94748C27.2118 3.59314 26.2239 2.36086 24.2935 2.36086H18.9594V12.5091H24.4608C26.3908 12.5091 27.4088 11.2917 27.4088 9.7703C27.4088 8.49207 26.5428 7.44266 25.4636 7.27511ZM90.0578 10.7137C88.2637 10.7137 86.809 9.25724 86.809 7.46104C86.809 5.66438 88.2637 4.20793 90.0578 4.20793C91.8524 4.20793 93.3067 5.66438 93.3067 7.46104C93.3067 9.25724 91.8524 10.7137 90.0578 10.7137ZM90.0578 2.11051C87.1066 2.11051 84.7135 4.5059 84.7135 7.46104C84.7135 10.4157 87.1066 12.8111 90.0578 12.8111C93.0095 12.8111 95.4021 10.4157 95.4021 7.46104C95.4021 4.5059 93.0095 2.11051 90.0578 2.11051Z" fill="#231F20"/>
<path d="M12.7802 10.6605C12.4965 10.7556 12.2439 10.9241 11.9921 11.0824C11.5179 11.3808 10.9806 11.7187 10.2968 11.7187C9.28334 11.7187 8.57173 11.113 8.34456 10.0566C8.16886 9.23835 7.52632 6.14954 7.52632 6.14954C7.27551 7.41059 6.88517 9.23835 6.709 10.0566C6.48184 11.113 5.77069 11.7187 4.7568 11.7187C4.07347 11.7187 3.53616 11.3808 3.0619 11.0824C2.80971 10.9241 2.55751 10.7556 2.27379 10.6605C1.98173 10.5625 1.68039 10.5672 1.38647 10.654C1.17971 10.7148 0.98268 10.8011 0.790288 10.8962C2.02391 13.3705 4.51991 15.0711 7.47069 15.0711C10.421 15.0711 13.0297 13.3705 14.2637 10.8962C14.0709 10.8011 13.8739 10.7148 13.6671 10.654C13.3736 10.5672 13.0718 10.5625 12.7802 10.6605ZM7.52692 0C3.36987 0 0 3.37379 0 7.53568C0 8.32981 0.12378 9.09517 0.350941 9.81411C0.527571 9.72917 0.706518 9.64656 0.894738 9.57137C1.75563 9.22837 2.54421 9.34301 3.33371 9.82246C3.33371 9.82246 3.6216 9.99837 3.70783 10.0527C4.07592 10.2843 4.42362 10.5029 4.75695 10.5029C5.0759 10.5029 5.38883 10.4179 5.52141 9.80111C5.72818 8.83896 6.23303 6.47467 6.45324 5.30366C6.58258 4.61535 6.65305 4.24404 6.72722 3.99248C6.8561 3.55155 7.09161 3.31113 7.42586 3.27075C7.42586 3.27075 7.48381 3.2624 7.52692 3.2624C7.57004 3.2624 7.62242 3.27027 7.62242 3.27027C7.95946 3.30833 8.19728 3.54921 8.32709 3.99246C8.4008 4.24402 8.47127 4.61533 8.60061 5.30364C8.82082 6.47465 9.32567 8.83895 9.53244 9.8011C9.66502 10.4179 9.97795 10.5029 10.2969 10.5029C10.6302 10.5029 10.9779 10.2843 11.346 10.0527C11.4322 9.99835 11.7201 9.82245 11.7201 9.82245C12.5096 9.343 13.2982 9.22835 14.1591 9.57135C14.3473 9.64654 14.5263 9.72916 14.7029 9.81409C14.9301 9.09515 15.0538 8.32979 15.0538 7.53566C15.0538 3.37377 11.684 0 7.52692 0Z" fill="#E51636"/>
<path d="M14.1591 9.57135C13.2982 9.22835 12.5096 9.343 11.7201 9.82245C11.7201 9.82245 11.4322 9.99835 11.346 10.0527C10.9779 10.2843 10.6302 10.5029 10.2969 10.5029C9.97795 10.5029 9.66502 10.4179 9.53244 9.8011C9.32567 8.83895 8.82082 6.47465 8.60061 5.30364C8.47127 4.61533 8.4008 4.24402 8.32709 3.99246C8.19728 3.54921 7.95946 3.30833 7.62242 3.27027C7.62242 3.27027 7.57004 3.2624 7.52692 3.2624C7.48381 3.2624 7.42586 3.27075 7.42586 3.27075C7.09161 3.31113 6.8561 3.55155 6.72722 3.99248C6.65305 4.24404 6.58258 4.61535 6.45324 5.30366C6.23303 6.47467 5.72818 8.83896 5.52141 9.80111C5.38883 10.4179 5.0759 10.5029 4.75695 10.5029C4.42362 10.5029 4.07592 10.2843 3.70783 10.0527C3.6216 9.99837 3.33371 9.82246 3.33371 9.82246C2.54421 9.34301 1.75563 9.22837 0.894738 9.57137C0.708836 9.64563 0.532021 9.72699 0.35771 9.811C0.476854 10.1851 0.624277 10.5467 0.797198 10.8924C0.987735 10.7987 1.18249 10.7143 1.38647 10.654C1.68039 10.5672 1.98173 10.5625 2.27379 10.6605C2.55751 10.7556 2.80971 10.9241 3.0619 11.0824C3.53616 11.3808 4.07347 11.7187 4.7568 11.7187C5.77069 11.7187 6.48184 11.113 6.709 10.0566C6.88517 9.23835 7.27551 7.41059 7.52632 6.14954C7.52632 6.14954 8.16886 9.23835 8.34456 10.0566C8.57173 11.113 9.28334 11.7187 10.2968 11.7187C10.9806 11.7187 11.5179 11.3808 11.9921 11.0824C12.2439 10.9241 12.4965 10.7556 12.7802 10.6605C13.0718 10.5625 13.3736 10.5672 13.6671 10.654C13.8711 10.7143 14.0657 10.7987 14.2563 10.8924C14.4297 10.5467 14.5771 10.1851 14.6962 9.811C14.5219 9.72699 14.345 9.64561 14.1591 9.57135Z" fill="var(--fill-0, white)"/>
</g>
</svg>
