<svg viewBox="0 0 32 26" fill="none" xmlns="http://www.w3.org/2000/svg">
<g id="Ca Technologies">
<path d="M0.420215 21.8475V20.8374H1.15877V21.8475H1.75726V22.4336H1.15877V24.1544C1.15877 24.3165 1.23518 24.3664 1.42618 24.3664C1.54079 24.3664 1.65539 24.329 1.75726 24.3041V24.9026C1.55352 24.9276 1.37525 24.9525 1.17151 24.9525C0.623955 24.9525 0.420215 24.6782 0.420215 24.2542V22.446H0V21.86L0.420215 21.8475ZM2.85237 23.4811C2.8651 24.1046 3.14524 24.354 3.48906 24.354C3.83287 24.354 3.98567 24.2043 4.17668 23.9923L4.7115 24.3165C4.43136 24.753 4.01114 24.94 3.42539 24.94C2.62316 24.94 2.12654 24.329 2.12654 23.3688C2.12654 22.4086 2.62316 21.7976 3.46359 21.7976C4.26582 21.7976 4.72423 22.4585 4.72423 23.1942V23.4935H2.85237V23.4811ZM4.03661 22.9947C4.02388 22.5707 3.79467 22.3338 3.45086 22.3338C3.09431 22.3338 2.87784 22.5832 2.8651 22.9947H4.03661ZM7.09272 22.8326C6.97811 22.5707 6.85078 22.3712 6.4815 22.3712C6.07402 22.3712 5.88301 22.683 5.88301 23.3688C5.88301 24.0422 6.07402 24.354 6.50696 24.354C6.82531 24.354 7.00358 24.142 7.15639 23.8676L7.71667 24.1794C7.4238 24.7156 7.04178 24.94 6.4815 24.94C5.6538 24.94 5.14445 24.329 5.14445 23.3688C5.14445 22.4086 5.64107 21.7976 6.4815 21.7976C7.06725 21.7976 7.52567 22.0969 7.69121 22.6082L7.09272 22.8326ZM8.26423 20.6628H9.00279V22.1717C9.23199 21.9847 9.52487 21.7851 9.88142 21.7851C10.4926 21.7851 10.7982 22.1842 10.7982 22.7952V24.8777H10.0597V22.9074C10.0597 22.4959 9.93235 22.3712 9.67768 22.3712C9.35933 22.3712 9.11739 22.5583 8.99005 22.6954V24.8902H8.26423V20.6628ZM11.5495 21.8475H12.2244V22.1717C12.4918 21.9847 12.8102 21.7851 13.1667 21.7851C13.778 21.7851 14.0708 22.1842 14.0708 22.7952V24.8777H13.345V22.9074C13.345 22.4959 13.2177 22.3712 12.963 22.3712C12.6446 22.3712 12.4027 22.5583 12.2754 22.6954V24.8902H11.5495V21.8475ZM15.93 21.7851C16.7704 21.7851 17.267 22.3962 17.267 23.3564C17.267 24.3165 16.7704 24.9276 15.93 24.9276C15.0895 24.9276 14.5929 24.3165 14.5929 23.3564C14.6057 22.3962 15.1023 21.7851 15.93 21.7851ZM15.93 22.3712C15.5225 22.3712 15.3315 22.683 15.3315 23.3688C15.3315 24.0422 15.5225 24.354 15.93 24.354C16.3374 24.354 16.5285 24.0422 16.5285 23.3688C16.5412 22.683 16.3374 22.3712 15.93 22.3712ZM17.8655 24.8777V20.6628H18.5913V24.8777H17.8655ZM20.5269 21.7851C21.3673 21.7851 21.8639 22.3962 21.8639 23.3564C21.8639 24.3165 21.3673 24.9276 20.5269 24.9276C19.6864 24.9276 19.1898 24.3165 19.1898 23.3564C19.2025 22.3962 19.6992 21.7851 20.5269 21.7851ZM20.5269 22.3712C20.1194 22.3712 19.9284 22.683 19.9284 23.3688C19.9284 24.0422 20.1194 24.354 20.5269 24.354C20.9343 24.354 21.1253 24.0422 21.1253 23.3688C21.1381 22.683 20.9471 22.3712 20.5269 22.3712ZM24.8945 22.2839C24.729 22.2839 24.538 22.2839 24.4234 22.3588C24.5253 22.4835 24.5889 22.658 24.5889 22.895C24.5889 23.4686 24.1942 23.8801 23.4302 23.8801C23.1118 23.8801 22.8571 23.8926 22.8571 24.0671C22.8571 24.5535 24.8818 23.8926 24.8818 25.1022C24.8818 25.5386 24.4361 26 23.4556 26C22.6279 26 22.0804 25.7506 22.0804 25.2767C22.0804 24.9026 22.3733 24.7156 22.6279 24.7156V24.6906C22.4879 24.6034 22.1695 24.5285 22.1695 24.2043C22.1695 23.9175 22.5133 23.693 22.6534 23.6556C22.3987 23.4561 22.195 23.2192 22.195 22.8576C22.195 22.3213 22.6025 21.7976 23.4047 21.7976C23.6594 21.7976 23.9777 21.9098 24.156 22.0719C24.2961 21.8849 24.5253 21.7851 24.8818 21.7976V22.2839H24.8945ZM22.7553 25.177C22.7553 25.4014 22.959 25.5137 23.5702 25.5137C24.0414 25.5137 24.2069 25.2767 24.2069 25.177C24.2069 25.0398 23.9905 24.8278 23.2774 24.8278C22.8699 24.8278 22.7553 25.0398 22.7553 25.177ZM23.4047 22.3213C23.0864 22.3213 22.8699 22.5458 22.8699 22.8201C22.8699 23.0945 23.0864 23.3189 23.4047 23.3189C23.6848 23.3189 23.9013 23.0945 23.9013 22.8201C23.914 22.5458 23.6848 22.3213 23.4047 22.3213ZM25.4166 21.2863V20.613H26.1425V21.2863H25.4166ZM26.1552 24.8902H25.4294V21.86H26.1552V24.8902ZM27.4795 23.4811C27.4922 24.1046 27.7724 24.354 28.1162 24.354C28.46 24.354 28.6128 24.2043 28.8038 23.9923L29.3386 24.3165C29.0585 24.753 28.6383 24.94 28.0525 24.94C27.2503 24.94 26.7537 24.329 26.7537 23.3688C26.7537 22.4086 27.2503 21.7976 28.0907 21.7976C28.893 21.7976 29.3514 22.4585 29.3514 23.1942V23.4935H27.4795V23.4811ZM28.6637 22.9947C28.651 22.5707 28.4218 22.3338 28.0653 22.3338C27.7087 22.3338 27.4795 22.5832 27.4795 22.9947H28.6637ZM31.4397 22.6456C31.2869 22.4835 31.0959 22.3213 30.8667 22.3213C30.5865 22.3213 30.4592 22.4336 30.4592 22.6206C30.4592 23.1444 32 22.9199 32 24.0297C32 24.6532 31.5161 24.94 30.8667 24.94C30.3828 24.94 29.9753 24.7281 29.7079 24.329L30.2045 23.9674C30.3701 24.2043 30.5993 24.4038 30.9176 24.4038C31.1723 24.4038 31.3506 24.2667 31.3506 24.0547C31.3506 23.5434 29.8098 23.7305 29.8098 22.6705C29.8098 22.1094 30.2937 21.7851 30.8285 21.7851C31.236 21.7851 31.6435 21.9348 31.9109 22.2465L31.4397 22.6456ZM22.2077 13.2556C21.622 14.141 20.6797 14.6897 19.6355 14.6897C18.2093 14.6897 17.0251 14.0537 17.0251 12.5448C17.0251 10.3127 20.3486 9.5271 22.8953 9.37746V10.0384C22.9081 11.4849 22.8826 12.258 22.2077 13.2556ZM17.4708 5.23741C17.8528 4.22734 18.8842 3.79089 20.2849 3.79089C22.2841 3.79089 22.8571 5.16259 22.8826 6.29736L22.8953 6.84604C17.3689 7.10791 12.1735 8.11799 12.2754 13.0686C12.3518 16.5353 15.5479 17.9568 17.7509 17.9444C20.3104 17.9444 21.7366 17.271 23.15 15.5626C23.1755 16.2859 23.2646 17.0465 23.392 17.6077H28.3454C28.0653 16.7597 28.0016 15.9118 28.0016 15.0264V6.03549C28.0016 3.85324 27.5814 2.63118 26.3844 1.57122C25.2511 0.561151 23.392 2.87667e-07 20.8834 2.87667e-07C18.5913 2.87667e-07 16.6176 0.511271 15.1659 1.48393C16.3629 2.40672 17.1524 3.69113 17.4708 5.23741Z" fill="var(--fill-0, #58676D)"/>
<path d="M11.9952 12.8815V13.3305C12.0716 15.1012 12.9503 16.1986 13.7652 16.8595C12.39 17.6326 10.76 17.9568 9.29566 17.9568C3.94747 17.9568 0.789494 14.2532 0.789494 9.153C0.789494 3.84077 4.04934 0 9.61401 0C13.6506 0 16.9614 2.09496 17.3179 6.1976H12.4664C12.4664 4.63885 11.3458 3.80336 9.77955 3.80336C7.27099 3.80336 6.49423 5.53669 6.49423 8.72902C6.49423 11.9712 7.22006 13.8667 9.79228 13.8667C10.7473 13.8791 11.5368 13.5549 11.9952 12.8815Z" fill="var(--fill-0, #58676D)"/>
</g>
</svg>
